<?xml version="1.0" encoding="UTF-8"?>
<svg version="1.1" xmlns="http://www.w3.org/2000/svg" width="394" height="394">
<path d="M0 0 C2 2 2 2 2 5 C3.98 5.99 3.98 5.99 6 7 C6 10.96 6 14.92 6 19 C2.81794908 20.7425517 0.53240406 21.96805576 -3.125 22.1875 C-6.01332554 22.68885789 -6.01332554 22.68885789 -7.16015625 24.5546875 C-8.60530537 27.37904738 -9.74559744 30.22461348 -10.734375 33.23828125 C-12.54720783 38.74727879 -12.54720783 38.74727879 -15.6875 40.5 C-16.8321875 40.7475 -16.8321875 40.7475 -18 41 C-17.67 43.31 -17.34 45.62 -17 48 C-16.18015625 48.07476562 -15.3603125 48.14953125 -14.515625 48.2265625 C-12.89914063 48.42378906 -12.89914063 48.42378906 -11.25 48.625 C-10.18265625 48.74101562 -9.1153125 48.85703125 -8.015625 48.9765625 C-3.8558137 50.38831193 -2.97611325 52.12275995 -1 56 C-0.03995342 58.73413553 0.63879944 61.48172604 1.25 64.3125 C1.4162085 65.066521 1.58241699 65.82054199 1.75366211 66.59741211 C4.55549853 79.88927819 4.55549853 79.88927819 0.6875 86.3125 C-0.18688845 87.55701311 -1.0808624 88.78816085 -2 90 C-2.598125 90.825 -3.19625 91.65 -3.8125 92.5 C-4.204375 92.995 -4.59625 93.49 -5 94 C-4.34 95.32 -3.68 96.64 -3 98 C-3.66 98.99 -4.32 99.98 -5 101 C-5.32238847 103.75855039 -5.51911575 106.41843278 -5.625 109.1875 C-5.66222168 110.0439209 -5.69944336 110.9003418 -5.73779297 111.78271484 C-6.42473611 130.03260979 -6.61830876 148.50895405 -5.21875 166.72265625 C-4.38209894 179.96963137 -5.13987429 193.36802328 -5.5 206.625 C-5.5719286 209.32594296 -5.64329269 212.02689927 -5.71398926 214.72787476 C-5.75768694 216.3918165 -5.80215802 218.05573819 -5.84753418 219.71963501 C-5.94767232 223.48111154 -6.02630998 227.23673329 -6 231 C-6.99 231 -7.98 231 -9 231 C-9 232.98 -9 234.96 -9 237 C-8.19522217 237.01458252 -7.39044434 237.02916504 -6.5612793 237.04418945 C10.60999783 237.3844171 27.74447194 238.03933373 44.88192749 239.18734741 C46.73019866 239.31097026 48.57868994 239.4313514 50.42739868 239.54824829 C61.51646216 240.25742306 72.16582852 241.47151148 83 244 C83 245.32 83 246.64 83 248 C36.62879307 259.31005047 -15.05864746 255.3362029 -62.50275463 255.25713772 C-67.55524894 255.24959544 -72.6076648 255.25232338 -77.66015625 255.26074219 C-200.01537412 255.45925047 -200.01537412 255.45925047 -222 247 C-221.67 246.01 -221.34 245.02 -221 244 C-210.03695601 241.42822771 -199.25831043 240.25379747 -188.03491211 239.546875 C-185.36031657 239.37801882 -182.68709108 239.19427849 -180.01367188 239.0078125 C-148.32777986 236.85463587 -116.61140907 236.72919591 -84.86694336 236.46777344 C-78.77845853 236.41681346 -72.69001301 236.36152333 -66.6015625 236.30664062 C-54.73440887 236.20028395 -42.86722056 236.09858688 -31 236 C-30.67 235.34 -30.34 234.68 -30 234 C-29.01 234 -28.02 234 -27 234 C-27.33 232.35 -27.66 230.7 -28 229 C-29.32 229 -30.64 229 -32 229 C-32.38218767 227.34385343 -32.71395102 225.67542976 -33 224 C-32.67 223.67 -32.34 223.34 -32 223 C-32.31227539 221.88254395 -32.62455078 220.76508789 -32.94628906 219.61376953 C-34.12894642 215.37680446 -35.30530304 211.13810949 -36.47998047 206.89892578 C-36.98450886 205.08140784 -37.49063527 203.26433257 -37.99853516 201.44775391 C-39.47758691 196.15538458 -40.92501716 190.85609559 -42.32641602 185.54260254 C-42.76288646 183.89504129 -43.20630594 182.249299 -43.65795898 180.60583496 C-49.09594027 160.64019275 -45.51178003 142.16957555 -42.4375 122 C-41.94015067 118.72935338 -41.44545875 115.4584293 -40.95973206 112.18603516 C-40.66053746 110.17035868 -40.35496145 108.15561422 -40.04161072 106.14208984 C-38.66901458 96.89742186 -38.78665192 88.12267998 -40 78.875 C-40.14308594 77.72644531 -40.14308594 77.72644531 -40.2890625 76.5546875 C-40.52059395 74.7024359 -40.759485 72.85110652 -41 71 C-41.66 71 -42.32 71 -43 71 C-43.20625 71.66 -43.4125 72.32 -43.625 73 C-46.20652349 78.6324149 -49.32489682 83.34057102 -55 86 C-54.75491379 91.66811118 -54.50796835 97.33613783 -54.25921631 103.00408936 C-54.16969631 105.04399735 -54.08038172 107.08391437 -53.99127197 109.12384033 C-53.51318903 120.03952838 -53.01944894 130.95340521 -52.421875 141.86328125 C-52.37556946 142.71065857 -52.32926392 143.55803589 -52.28155518 144.43109131 C-52.21324493 145.68022308 -52.21324493 145.68022308 -52.14355469 146.95458984 C-51.30357564 162.3192382 -50.7042677 177.60549072 -51 193 C-52.98 193.99 -52.98 193.99 -55 195 C-54.97679687 195.62648438 -54.95359375 196.25296875 -54.9296875 196.8984375 C-54.91164062 197.71570313 -54.89359375 198.53296875 -54.875 199.375 C-54.85179687 200.18710937 -54.82859375 200.99921875 -54.8046875 201.8359375 C-55 204 -55 204 -57 206 C-58.92439175 206.25447559 -58.92439175 206.25447559 -61.32041931 206.26069641 C-62.2275618 206.26778122 -63.13470428 206.27486603 -64.06933594 206.28216553 C-65.56630005 206.2784494 -65.56630005 206.2784494 -67.09350586 206.2746582 C-68.14236465 206.27976913 -69.19122345 206.28488007 -70.27186584 206.29014587 C-73.75291588 206.3040918 -77.23376904 206.30308134 -80.71484375 206.30078125 C-83.12618586 206.30466543 -85.53752728 206.30899952 -87.9488678 206.31376648 C-93.00882177 206.32123947 -98.06870599 206.3209296 -103.12866211 206.31567383 C-109.62351078 206.30987785 -116.11807441 206.32680833 -122.61287594 206.3500185 C-127.5944639 206.3647268 -132.57598275 206.3656315 -137.55758858 206.36250877 C-139.95265836 206.36302345 -142.34773186 206.36828843 -144.74278069 206.37832069 C-148.08774385 206.39061138 -151.4321459 206.3839375 -154.77709961 206.37231445 C-156.27102737 206.38378006 -156.27102737 206.38378006 -157.7951355 206.39547729 C-158.70509781 206.38846298 -159.61506012 206.38144867 -160.55259705 206.3742218 C-161.34366317 206.37438954 -162.13472929 206.37455729 -162.94976711 206.37473011 C-165.62087511 205.88651992 -166.45431568 205.22705444 -168 203 C-168.49677086 200.5054369 -168.49677086 200.5054369 -168.66976929 197.4889679 C-168.74144129 196.35596599 -168.81311329 195.22296408 -168.88695717 194.05562878 C-168.95052595 192.82079911 -169.01409473 191.58596945 -169.07958984 190.3137207 C-169.15692038 189.02099149 -169.23425091 187.72826227 -169.31392479 186.39635944 C-169.51918721 182.95136649 -169.70686324 179.50564624 -169.88963985 176.05939531 C-170.06488577 172.78918742 -170.25283644 169.51970599 -170.43878174 166.25009155 C-170.85151082 158.87576827 -171.23751531 151.50025048 -171.61629152 144.12412429 C-171.76702282 141.19392453 -171.91925092 138.26380314 -172.07140768 135.33367711 C-172.43046788 128.4178014 -172.78688761 121.50179324 -173.14160156 114.58569336 C-173.50454009 107.51028851 -173.8724157 100.43515194 -174.24258292 93.36012191 C-174.56407364 87.21171993 -174.88233222 81.06315612 -175.19810998 74.9144581 C-175.38513716 71.27351685 -175.57333248 67.63264665 -175.76475906 63.99193382 C-177.11774195 38.2071938 -177.11774195 38.2071938 -177.27880859 28.29418945 C-177.3004306 27.11734085 -177.32205261 25.94049225 -177.34432983 24.72798157 C-177 22 -177 22 -175.70523071 20.14176941 C-173.04398921 18.35988493 -170.13200923 18.39861936 -167 18 C-166.34 17.34 -165.68 16.68 -165 16 C-163.17210579 15.74273109 -163.17210579 15.74273109 -160.91409302 15.73257446 C-159.63127441 15.71977951 -159.63127441 15.71977951 -158.32254028 15.70672607 C-156.91208939 15.70808563 -156.91208939 15.70808563 -155.47314453 15.70947266 C-154.48441345 15.70275543 -153.49568237 15.69603821 -152.47698975 15.68911743 C-149.19554676 15.67005793 -145.91430745 15.66620916 -142.6328125 15.6640625 C-140.35838739 15.65763988 -138.08396313 15.65091193 -135.80953979 15.64389038 C-131.03625574 15.63189754 -126.26304416 15.6282116 -121.48974609 15.62939453 C-115.36708841 15.62959778 -109.24489459 15.60229807 -103.12234688 15.56785011 C-98.42294166 15.54563417 -93.72364899 15.54155537 -89.02419662 15.54261398 C-86.7667061 15.54024992 -84.50921285 15.53138142 -82.25177383 15.51594925 C-79.09606528 15.49639781 -75.94136868 15.50208509 -72.78564453 15.51416016 C-71.8493924 15.50292114 -70.91314026 15.49168213 -69.94851685 15.48010254 C-63.69263144 15.54106595 -63.69263144 15.54106595 -60.43299866 17.70088196 C-58.74377048 20.41109732 -58.42898969 22.08982164 -58.28637695 25.27172852 C-58.22984451 26.32284317 -58.17331207 27.37395782 -58.11506653 28.45692444 C-58.07322739 29.58617844 -58.03138824 30.71543243 -57.98828125 31.87890625 C-57.92972458 33.04252182 -57.87116791 34.20613739 -57.81083679 35.40501404 C-57.62697024 39.1235767 -57.46884308 42.84268746 -57.3125 46.5625 C-57.14040441 50.28547717 -56.96305231 54.00814437 -56.7820282 57.73069763 C-56.6710625 60.04751168 -56.56623996 62.36462958 -56.46809387 64.68202209 C-56.39747993 66.25396584 -56.39747993 66.25396584 -56.32543945 67.85766602 C-56.26692558 69.24188499 -56.26692558 69.24188499 -56.20722961 70.65406799 C-56.07774651 73.1526331 -56.07774651 73.1526331 -55 76 C-50.45393385 68.46282913 -50.45393385 68.46282913 -47.875 60.125 C-47.13946743 56.13312907 -46.11929122 53.78207055 -43 51 C-37.82710939 48.97141545 -32.49695991 48.47366094 -27 48 C-27 46.35 -27 44.7 -27 43 C-28.3921875 42.566875 -28.3921875 42.566875 -29.8125 42.125 C-33.90788345 39.39474436 -34.51233083 37.15243601 -35.66796875 32.49609375 C-36.11532847 29.13300124 -35.45195611 27.04219375 -34 24 C-33.731875 22.96875 -33.46375 21.9375 -33.1875 20.875 C-31.70569303 17.28746733 -30.28379162 16.04324812 -27 14 C-22.89311819 12.5332565 -19.35968089 11.73577692 -15 12 C-14.6596875 10.6696875 -14.6596875 10.6696875 -14.3125 9.3125 C-11.53345192 2.29871199 -7.31272525 -0.45704533 0 0 Z M-7 69 C-7.99 69.66 -8.98 70.32 -10 71 C-9.40380045 75.86896303 -8.43023178 80.32790951 -7 85 C-5.25024533 83.53956606 -5.25024533 83.53956606 -4 81 C-3.89927389 76.34981103 -4.40473678 72.89289483 -7 69 Z M-26 147 C-26.71198801 148.94956374 -27.39325022 150.91035489 -28.0625 152.875 C-28.44535156 153.96554688 -28.82820312 155.05609375 -29.22265625 156.1796875 C-30.22021594 161.08226726 -29.7384411 165.08629156 -29 170 C-28.82621826 171.16273438 -28.65243652 172.32546875 -28.47338867 173.5234375 C-27.85414692 177.53948093 -27.21091235 181.55109692 -26.5625 185.5625 C-24.95116508 195.5941521 -23.44090882 205.59595649 -22.5546875 215.72265625 C-21.90434427 219.56517716 -20.6573761 222.48367503 -19 226 C-18.67 226 -18.34 226 -18 226 C-17.79815313 215.76412097 -18.40315241 205.68947176 -19.25 195.5 C-19.31458405 194.70316803 -19.37916809 193.90633606 -19.44570923 193.08535767 C-20.70890504 177.63081693 -22.63952062 162.32598493 -25 147 C-25.33 147 -25.66 147 -26 147 Z M-21 226 C-20.67 227.98 -20.34 229.96 -20 232 C-19.34 232 -18.68 232 -18 232 C-17.67 232.99 -17.34 233.98 -17 235 C-16.67 233.68 -16.34 232.36 -16 231 C-16.99 231 -17.98 231 -19 231 C-19 229.35 -19 227.7 -19 226 C-19.66 226 -20.32 226 -21 226 Z " fill="#0CAD0C" transform="translate(266,82)"/>
<path d="M0 0 C4.36984829 -0.28791094 8.63844707 -0.4532176 13 0 C15.8125 2.5 15.8125 2.5 18 5 C22.09371963 5.78213343 26.02060883 5.08125996 30 4 C33.02685323 10.69015239 33.38831804 16.23679588 33.2578125 23.5234375 C33.25119598 24.62362213 33.24457947 25.72380676 33.23776245 26.85733032 C33.21447906 30.36351209 33.17089575 33.86904764 33.125 37.375 C33.07810614 41.96610126 33.04008405 46.55721115 33.0078125 51.1484375 C32.99479095 52.82157013 32.99479095 52.82157013 32.98150635 54.52850342 C32.94749232 61.68137616 33.16824444 68.77049044 33.63467407 75.90649414 C34.53313547 89.78789377 33.87741003 103.73175147 33.5 117.625 C33.4280714 120.32594296 33.35670731 123.02689927 33.28601074 125.72787476 C33.24231306 127.3918165 33.19784198 129.05573819 33.15246582 130.71963501 C33.05232768 134.48111154 32.97369002 138.23673329 33 142 C32.01 142 31.02 142 30 142 C30 143.98 30 145.96 30 148 C30.80477783 148.01458252 31.60955566 148.02916504 32.4387207 148.04418945 C49.60999783 148.3844171 66.74447194 149.03933373 83.88192749 150.18734741 C85.73019866 150.31097026 87.57868994 150.4313514 89.42739868 150.54824829 C100.51646216 151.25742306 111.16582852 152.47151148 122 155 C122 156.32 122 157.64 122 159 C75.62879307 170.31005047 23.94135254 166.3362029 -23.50275463 166.25713772 C-28.55524894 166.24959544 -33.6076648 166.25232338 -38.66015625 166.26074219 C-161.01537412 166.45925047 -161.01537412 166.45925047 -183 158 C-182.67 157.01 -182.34 156.02 -182 155 C-171.03695601 152.42822771 -160.25831043 151.25379747 -149.03491211 150.546875 C-146.36031657 150.37801882 -143.68709108 150.19427849 -141.01367188 150.0078125 C-109.32777986 147.85463587 -77.61140907 147.72919591 -45.86694336 147.46777344 C-39.77845853 147.41681346 -33.69001301 147.36152333 -27.6015625 147.30664062 C-15.73440887 147.20028395 -3.86722056 147.09858688 8 147 C8.33 146.34 8.66 145.68 9 145 C9.99 145 10.98 145 12 145 C11.67 143.35 11.34 141.7 11 140 C9.68 140 8.36 140 7 140 C6.61781233 138.34385343 6.28604898 136.67542976 6 135 C6.33 134.67 6.66 134.34 7 134 C6.68772461 132.88254395 6.37544922 131.76508789 6.05371094 130.61376953 C4.87105358 126.37680446 3.69469696 122.13810949 2.52001953 117.89892578 C2.01549114 116.08140784 1.50936473 114.26433257 1.00146484 112.44775391 C-0.47758691 107.15538458 -1.92501716 101.85609559 -3.32641602 96.54260254 C-3.76288646 94.89504129 -4.20630594 93.249299 -4.65795898 91.60583496 C-10.1004564 71.62361173 -6.50740442 53.12517941 -3.4375 32.9375 C-2.9405273 29.65651282 -2.44614477 26.3752369 -1.95973206 23.09266663 C-1.65997579 21.07043404 -1.35433606 19.04906097 -1.04161072 17.02879333 C-0.18846922 11.28226993 0.14241508 5.8100147 0 0 Z M13 58 C12.28801199 59.94956374 11.60674978 61.91035489 10.9375 63.875 C10.55464844 64.96554688 10.17179688 66.05609375 9.77734375 67.1796875 C8.77978406 72.08226726 9.2615589 76.08629156 10 81 C10.17378174 82.16273438 10.34756348 83.32546875 10.52661133 84.5234375 C11.14585308 88.53948093 11.78908765 92.55109692 12.4375 96.5625 C14.04883492 106.5941521 15.55909118 116.59595649 16.4453125 126.72265625 C17.09565573 130.56517716 18.3426239 133.48367503 20 137 C20.33 137 20.66 137 21 137 C21.20184687 126.76412097 20.59684759 116.68947176 19.75 106.5 C19.68541595 105.70316803 19.62083191 104.90633606 19.55429077 104.08535767 C18.29109496 88.63081693 16.36047938 73.32598493 14 58 C13.67 58 13.34 58 13 58 Z M18 137 C18.33 138.98 18.66 140.96 19 143 C19.66 143 20.32 143 21 143 C21.33 143.99 21.66 144.98 22 146 C22.33 144.68 22.66 143.36 23 142 C22.01 142 21.02 142 20 142 C20 140.35 20 138.7 20 137 C19.34 137 18.68 137 18 137 Z " fill="#21303B" transform="translate(227,171)"/>
<path d="M0 0 C6.14877983 0.01037517 12.29756397 0.01482752 18.4463501 0.01983643 C30.43203825 0.03044386 42.41770763 0.0474277 54.40338135 0.06866455 C54.40338135 4.33693328 54.02724622 5.00748887 51.40338135 8.06866455 C53.10494385 7.79022705 53.10494385 7.79022705 54.84088135 7.50616455 C56.60431885 7.28960205 56.60431885 7.28960205 58.40338135 7.06866455 C58.73338135 7.39866455 59.06338135 7.72866455 59.40338135 8.06866455 C62.26216044 8.30567694 65.10221432 8.49085637 67.96588135 8.63116455 C69.17534424 8.69593994 69.17534424 8.69593994 70.40924072 8.76202393 C72.40706939 8.86841717 74.40520204 8.96907343 76.40338135 9.06866455 C76.07338135 6.09866455 75.74338135 3.12866455 75.40338135 0.06866455 C93.38866799 0.39455672 111.33606793 1.05361794 129.28530884 2.25601196 C131.13358 2.37963481 132.98207128 2.50001595 134.83078003 2.61691284 C145.9198435 3.32608761 156.56920987 4.54017603 167.40338135 7.06866455 C167.40338135 8.38866455 167.40338135 9.70866455 167.40338135 11.06866455 C121.03217442 22.37871502 69.34473388 18.40486745 21.90062672 18.32580227 C16.84813241 18.31825999 11.79571655 18.32098793 6.7432251 18.32940674 C-115.61199278 18.52791502 -115.61199278 18.52791502 -137.59661865 10.06866455 C-137.26661865 9.07866455 -136.93661865 8.08866455 -136.59661865 7.06866455 C-125.63357466 4.49689226 -114.85492908 3.32246202 -103.63153076 2.61553955 C-100.95693523 2.44668337 -98.28370973 2.26294305 -95.61029053 2.07647705 C-89.94157633 1.69098999 -84.27042767 1.36900393 -78.59661865 1.06866455 C-77.65949036 1.01747467 -76.72236206 0.96628479 -75.75683594 0.9135437 C-50.53087159 -0.39917026 -25.25046836 -0.04721145 0 0 Z " fill="#F4F5F7" transform="translate(181.59661865234375,318.93133544921875)"/>
<path d="M0 0 C2 2 2 2 2 5 C3.32 5.66 4.64 6.32 6 7 C6 10.96 6 14.92 6 19 C2.81794908 20.7425517 0.53240406 21.96805576 -3.125 22.1875 C-6.01332554 22.68885789 -6.01332554 22.68885789 -7.16015625 24.5546875 C-8.60530537 27.37904738 -9.74559744 30.22461348 -10.734375 33.23828125 C-12.54720783 38.74727879 -12.54720783 38.74727879 -15.6875 40.5 C-16.450625 40.665 -17.21375 40.83 -18 41 C-17.505 44.465 -17.505 44.465 -17 48 C-16.18015625 48.07476562 -15.3603125 48.14953125 -14.515625 48.2265625 C-13.43796875 48.35804688 -12.3603125 48.48953125 -11.25 48.625 C-10.18265625 48.74101562 -9.1153125 48.85703125 -8.015625 48.9765625 C-3.8558137 50.38831193 -2.97611325 52.12275995 -1 56 C-0.03995342 58.73413553 0.63879944 61.48172604 1.25 64.3125 C1.4162085 65.066521 1.58241699 65.82054199 1.75366211 66.59741211 C4.55549853 79.88927819 4.55549853 79.88927819 0.6875 86.3125 C-0.18688845 87.55701311 -1.0808624 88.78816085 -2 90 C-2.598125 90.825 -3.19625 91.65 -3.8125 92.5 C-4.204375 92.995 -4.59625 93.49 -5 94 C-4.34 95.32 -3.68 96.64 -3 98 C-3.66 98.99 -4.32 99.98 -5 101 C-5.66 101 -6.32 101 -7 101 C-7.99 97.04 -7.99 97.04 -9 93 C-9.495 93.33 -9.99 93.66 -10.5 94 C-14.00337403 95.40134961 -17.31142434 95.61354526 -21 95 C-24 93.125 -24 93.125 -26 91 C-26 90.34 -26 89.68 -26 89 C-27.65 89 -29.3 89 -31 89 C-31.495 90.485 -31.495 90.485 -32 92 C-32 91.01 -32 90.02 -32 89 C-32.969375 89.020625 -33.93875 89.04125 -34.9375 89.0625 C-38 89 -38 89 -39 88 C-39.400383 85.14471393 -39.7518227 82.30263513 -40.0625 79.4375 C-40.15337891 78.63119141 -40.24425781 77.82488281 -40.33789062 76.99414062 C-40.56247449 74.99652623 -40.78173236 72.9983144 -41 71 C-41.66 71 -42.32 71 -43 71 C-43.20625 71.66 -43.4125 72.32 -43.625 73 C-46.11584696 78.43457518 -49.29597883 83.70083495 -55 86 C-57.56542969 86.22705078 -57.56542969 86.22705078 -60.421875 86.1953125 C-61.44667969 86.18886719 -62.47148437 86.18242187 -63.52734375 86.17578125 C-65.12255859 86.15064453 -65.12255859 86.15064453 -66.75 86.125 C-67.82894531 86.11597656 -68.90789062 86.10695313 -70.01953125 86.09765625 C-72.67991278 86.07411305 -75.33984336 86.04122799 -78 86 C-78 85.34 -78 84.68 -78 84 C-78.66 84 -79.32 84 -80 84 C-80 82.68 -80 81.36 -80 80 C-78.02 80 -76.04 80 -74 80 C-74 80.66 -74 81.32 -74 82 C-72.3745692 81.85904936 -70.74965949 81.71207913 -69.125 81.5625 C-68.22007812 81.48128906 -67.31515625 81.40007812 -66.3828125 81.31640625 C-63.98889139 81.13010715 -63.98889139 81.13010715 -62 80 C-60.00039988 79.960008 -57.99952758 79.95653201 -56 80 C-55.7215625 79.27296875 -55.443125 78.5459375 -55.15625 77.796875 C-54.07319907 75.1770626 -52.8380372 72.7465816 -51.5 70.25 C-49.78052026 66.88623643 -48.62549829 63.90021152 -47.9375 60.1875 C-47.16042154 56.18907812 -46.12729876 53.78921241 -43 51 C-37.82710939 48.97141545 -32.49695991 48.47366094 -27 48 C-27 46.35 -27 44.7 -27 43 C-27.928125 42.71125 -28.85625 42.4225 -29.8125 42.125 C-33.90788345 39.39474436 -34.51233083 37.15243601 -35.66796875 32.49609375 C-36.11532847 29.13300124 -35.45195611 27.04219375 -34 24 C-33.731875 22.96875 -33.46375 21.9375 -33.1875 20.875 C-31.70569303 17.28746733 -30.28379162 16.04324812 -27 14 C-22.89311819 12.5332565 -19.35968089 11.73577692 -15 12 C-14.773125 11.113125 -14.54625 10.22625 -14.3125 9.3125 C-11.53345192 2.29871199 -7.31272525 -0.45704533 0 0 Z M-7 69 C-7.99 69.66 -8.98 70.32 -10 71 C-9.40380045 75.86896303 -8.43023178 80.32790951 -7 85 C-5.25024533 83.53956606 -5.25024533 83.53956606 -4 81 C-3.89927389 76.34981103 -4.40473678 72.89289483 -7 69 Z " fill="#5C6C73" transform="translate(266,82)"/>
<path d="M0 0 C0.83118987 8.14801482 1.28980663 16.27844503 1.61328125 24.4609375 C1.69673059 26.46997901 1.78018913 28.47902016 1.86397648 30.4880476 C1.95318099 32.63399809 2.04129544 34.77999124 2.12921143 36.92599487 C3.25876919 64.42528113 4.55766085 91.91418178 5.99258041 119.39917755 C6.1242253 121.92264992 6.2552425 124.44615424 6.38613892 126.96966553 C6.59389767 130.97021836 6.80344372 134.97067366 7.01453209 138.97105217 C7.09165773 140.43413354 7.1684375 141.8972332 7.24482155 143.36035347 C7.41735596 146.65715925 7.59677483 149.95317222 7.78765869 153.24899292 C7.93291217 155.81489425 8.05977416 158.38188496 8.1708374 160.94949341 C8.2354718 162.19922943 8.3001062 163.44896545 8.36669922 164.73657227 C8.41688202 165.84710464 8.46706482 166.95763702 8.51876831 168.1018219 C9.19180843 172.163006 9.19180843 172.163006 12 175 C15.16775426 175.61003703 18.30263783 175.56341011 21.52026367 175.54589844 C22.98395638 175.56140495 22.98395638 175.56140495 24.47721863 175.57722473 C27.70763499 175.60675962 30.93742771 175.60815418 34.16796875 175.609375 C36.40571801 175.62434939 38.64345618 175.64107497 40.88117981 175.65948486 C46.77485651 175.70325352 52.66838412 175.72317863 58.56219482 175.73822021 C64.57475638 175.75775697 70.58715611 175.7997308 76.59960938 175.83984375 C88.39968978 175.915249 100.19973415 175.96547803 112 176 C112.05399736 177.45792884 112.09279177 178.91642712 112.125 180.375 C112.14820313 181.18710937 112.17140625 181.99921875 112.1953125 182.8359375 C112 185 112 185 110 187 C108.07560825 187.25447559 108.07560825 187.25447559 105.67958069 187.26069641 C104.7724382 187.26778122 103.86529572 187.27486603 102.93066406 187.28216553 C101.93268799 187.27968811 100.93471191 187.27721069 99.90649414 187.2746582 C98.85763535 187.27976913 97.80877655 187.28488007 96.72813416 187.29014587 C93.24708412 187.3040918 89.76623096 187.30308134 86.28515625 187.30078125 C83.87381414 187.30466543 81.46247272 187.30899952 79.0511322 187.31376648 C73.99117823 187.32123947 68.93129401 187.3209296 63.87133789 187.31567383 C57.37648922 187.30987785 50.88192559 187.32680833 44.38712406 187.3500185 C39.4055361 187.3647268 34.42401725 187.3656315 29.44241142 187.36250877 C27.04734164 187.36302345 24.65226814 187.36828843 22.25721931 187.37832069 C18.91225615 187.39061138 15.5678541 187.3839375 12.22290039 187.37231445 C10.72897263 187.38378006 10.72897263 187.38378006 9.2048645 187.39547729 C8.29490219 187.38846298 7.38493988 187.38144867 6.44740295 187.3742218 C5.65633683 187.37438954 4.86527071 187.37455729 4.05023289 187.37473011 C1.37912489 186.88651992 0.54568432 186.22705444 -1 184 C-1.49677086 181.5054369 -1.49677086 181.5054369 -1.66976929 178.4889679 C-1.74144129 177.35596599 -1.81311329 176.22296408 -1.88695717 175.05562878 C-1.95052595 173.82079911 -2.01409473 172.58596945 -2.07958984 171.3137207 C-2.15692038 170.02099149 -2.23425091 168.72826227 -2.31392479 167.39635944 C-2.51918721 163.95136649 -2.70686324 160.50564624 -2.88963985 157.05939531 C-3.06488577 153.78918742 -3.25283644 150.51970599 -3.43878174 147.25009155 C-3.85151082 139.87576827 -4.23751531 132.50025048 -4.61629152 125.12412429 C-4.76702282 122.19392453 -4.91925092 119.26380314 -5.07140768 116.33367711 C-5.43046788 109.4178014 -5.78688761 102.50179324 -6.14160156 95.58569336 C-6.50454009 88.51028851 -6.8724157 81.43515194 -7.24258292 74.36012191 C-7.56407364 68.21171993 -7.88233222 62.06315612 -8.19810998 55.9144581 C-8.38513716 52.27351685 -8.57333248 48.63264665 -8.76475906 44.99193382 C-10.11774195 19.2071938 -10.11774195 19.2071938 -10.27880859 9.29418945 C-10.3004306 8.11734085 -10.32205261 6.94049225 -10.34432983 5.72798157 C-10 3 -10 3 -8.71304321 1.11833191 C-5.94213133 -0.69061206 -3.2061096 -0.1814779 0 0 Z " fill="#C8EDC9" transform="translate(99,101)"/>
<path d="M0 0 C7.2387186 4.96335591 12.03796612 11.33435036 14 20 C15.04716095 29.61991861 13.28516935 36.33357048 7.4609375 44.03515625 C2.45128201 49.6265016 -3.51009766 52.41775331 -10.921875 53.37890625 C-18.91171191 53.69974167 -26.54850427 52.32389568 -33.06640625 47.45703125 C-38.71088263 42.12952331 -43.70244635 35.38525786 -44.23828125 27.48828125 C-44.61441685 13.23103228 -44.61441685 13.23103228 -40 7 C-39.29875 6.01 -38.5975 5.02 -37.875 4 C-37.25625 3.34 -36.6375 2.68 -36 2 C-35.34 2 -34.68 2 -34 2 C-34 1.34 -34 0.68 -34 0 C-32.75264433 -0.6509259 -31.50198168 -1.29551669 -30.25 -1.9375 C-29.55390625 -2.29714844 -28.8578125 -2.65679687 -28.140625 -3.02734375 C-18.45780491 -7.4270193 -8.97279742 -4.90661236 0 0 Z " fill="#4FC550" transform="translate(170,118)"/>
<path d="M0 0 C0.33 0 0.66 0 1 0 C1.06058594 1.05960938 1.12117188 2.11921875 1.18359375 3.2109375 C1.26800127 4.59897221 1.35264917 5.98699232 1.4375 7.375 C1.47681641 8.07367188 1.51613281 8.77234375 1.55664062 9.4921875 C1.74280134 13.37360492 1.74280134 13.37360492 3 17 C3.14510103 19.89154938 3.23429127 22.76278425 3.28125 25.65625 C3.29965942 26.51432251 3.31806885 27.37239502 3.33703613 28.25646973 C3.41583615 31.93631334 3.48349027 35.61634397 3.55224609 39.29638672 C3.60393386 41.97893428 3.66120016 44.66132285 3.71875 47.34375 C3.73232544 48.18023071 3.74590088 49.01671143 3.7598877 49.87854004 C3.74197355 54.0736463 3.74197355 54.0736463 5 58 C5.14475054 60.64990481 5.23416364 63.27772656 5.28125 65.9296875 C5.29965942 66.71642853 5.31806885 67.50316956 5.33703613 68.31375122 C5.3958556 70.83409059 5.44862 73.35449865 5.5 75.875 C5.56775853 79.18503579 5.64148931 82.49486147 5.71875 85.8046875 C5.73911316 86.94549271 5.73911316 86.94549271 5.7598877 88.10934448 C5.84209628 91.62039373 6.14218461 94.56873843 7 98 C7.33 94.04 7.66 90.08 8 86 C8.33 86 8.66 86 9 86 C9.33 93.92 9.66 101.84 10 110 C42.34 110 74.68 110 108 110 C107.01 98.12 107.01 98.12 106 86 C105.75981977 79.68350761 105.54894819 73.38043543 105.4375 67.0625 C105.39332974 64.73740642 105.34693942 62.41243587 105.29469299 60.08750916 C105.24899868 58.04030357 105.21102901 55.99292972 105.17358398 53.94555664 C105.33387337 51.11244539 105.33387337 51.11244539 104 50 C103.91138008 47.1883662 103.88477645 44.40141745 103.90234375 41.58984375 C103.9037587 40.74780899 103.90517365 39.90577423 103.90663147 39.03822327 C103.91224737 36.33794665 103.92480252 33.63775172 103.9375 30.9375 C103.94251295 29.11132932 103.94707621 27.28515734 103.95117188 25.45898438 C103.96222196 20.97262458 103.97949721 16.48632616 104 12 C103.34 12 102.68 12 102 12 C102 10.68 102 9.36 102 8 C96.72 7.67 91.44 7.34 86 7 C86 6.67 86 6.34 86 6 C93.26 6 100.52 6 108 6 C108.76686785 10.60120712 109.23597349 14.84395699 109.48071289 19.47631836 C109.5198732 20.20102829 109.55903351 20.92573822 109.59938049 21.67240906 C109.72740498 24.06137886 109.85029908 26.45057742 109.97265625 28.83984375 C110.06077965 30.52495484 110.14903377 32.21005909 110.2374115 33.89515686 C110.42214902 37.43478649 110.60414107 40.9745451 110.78442383 44.5144043 C110.96731503 48.09960389 111.15446735 51.68453604 111.34594727 55.26928711 C113.16549663 89.35357183 113.16549663 89.35357183 113.24609375 103.87890625 C113.26024071 105.2686692 113.26024071 105.2686692 113.27467346 106.68650818 C113.24733557 112.75266443 113.24733557 112.75266443 111 115 C109.17210579 115.26006222 109.17210579 115.26006222 106.91409302 115.27415466 C106.05888062 115.28412979 105.20366821 115.29410492 104.32254028 115.30438232 C102.91208939 115.30537933 102.91208939 115.30537933 101.47314453 115.30639648 C100.48441345 115.31472 99.49568237 115.32304352 98.47698975 115.33161926 C95.19555774 115.35579299 91.91432421 115.36450039 88.6328125 115.37109375 C86.35838763 115.38005445 84.0839634 115.38917618 81.80953979 115.39845276 C77.03626063 115.41496536 72.26305179 115.42264701 67.48974609 115.42553711 C61.36699794 115.43092327 55.24490881 115.46860394 49.12234688 115.51428127 C44.42293879 115.54399316 39.7236905 115.55125939 35.02419662 115.55226326 C32.76669165 115.55647721 30.5091867 115.56895819 28.25177383 115.58978081 C25.0959017 115.61657281 21.9415715 115.61190553 18.78564453 115.59936523 C17.8493924 115.61419952 16.91314026 115.62903381 15.94851685 115.64431763 C9.69679225 115.5734116 9.69679225 115.5734116 6.43873596 112.89225769 C4.73080664 109.45884679 4.38173935 106.9545146 4.19458008 103.12451172 C4.13759193 102.11581024 4.13759193 102.11581024 4.07945251 101.08673096 C3.95850707 98.86823955 3.86394649 96.64945311 3.76953125 94.4296875 C3.68958891 92.86800877 3.60799129 91.30641398 3.52482605 89.74490356 C3.30991161 85.62652064 3.11728583 81.50738728 2.92938232 77.38769531 C2.73757581 73.26430608 2.52529332 69.14198336 2.31445312 65.01953125 C1.99572301 58.74539092 1.6888391 52.47080835 1.39282227 46.19555664 C1.08860176 39.74966875 0.7501151 33.30629969 0.390625 26.86328125 C0.05266508 20.67567669 -0.13200941 14.50953169 -0.0625 8.3125 C-0.05798828 7.49201172 -0.05347656 6.67152344 -0.04882812 5.82617188 C-0.03747086 3.88407959 -0.0195725 1.94202687 0 0 Z " fill="#0EAC0E" transform="translate(102,162)"/>
<path d="M0 0 C10.28304538 -0.02312376 20.56608462 -0.04091525 30.84915066 -0.05181217 C35.6234828 -0.05704093 40.39779721 -0.06413844 45.17211914 -0.07543945 C49.77566262 -0.0862686 54.37918899 -0.09227689 58.98274422 -0.09487724 C60.74309623 -0.09673144 62.50344726 -0.10035196 64.26379204 -0.10573006 C66.72072277 -0.11294086 69.17758195 -0.11399093 71.63452148 -0.11352539 C72.73719109 -0.1189183 72.73719109 -0.1189183 73.86213684 -0.12442017 C78.88594784 -0.11405216 78.88594784 -0.11405216 80 1 C80.09909302 3.33160055 80.12970504 5.66629942 80.125 8 C80.12886719 9.918125 80.12886719 9.918125 80.1328125 11.875 C80 15 80 15 79 16 C76.60730049 16.10558845 74.24332044 16.1467844 71.84985352 16.14526367 C70.72791595 16.15030159 70.72791595 16.15030159 69.58331299 16.15544128 C67.09849408 16.16497902 64.61374235 16.1668958 62.12890625 16.16796875 C60.40876741 16.17117938 58.68862885 16.17454329 56.9684906 16.17805481 C53.35781216 16.18405315 49.74715768 16.18589399 46.13647461 16.18530273 C41.50129015 16.18520107 36.86625873 16.19885428 32.23111057 16.21607494 C28.67700998 16.22717319 25.12294664 16.22922261 21.56883049 16.22869301 C19.85954193 16.22987638 18.1502525 16.23431801 16.44098091 16.24202538 C14.0537241 16.25178159 11.6668028 16.24896472 9.27954102 16.24291992 C8.56829575 16.24853943 7.85705048 16.25415894 7.12425232 16.25994873 C2.22831574 16.22831574 2.22831574 16.22831574 0 14 C-0.1953125 10.7421875 -0.1953125 10.7421875 -0.125 6.875 C-0.10695313 5.59367188 -0.08890625 4.31234375 -0.0703125 2.9921875 C-0.04710938 2.00476563 -0.02390625 1.01734375 0 0 Z " fill="#F3FAF3" transform="translate(119,223)"/>
<path d="M0 0 C10.13537602 -0.04627451 20.27072704 -0.08184427 30.40618706 -0.10362434 C35.11213783 -0.11407597 39.81801651 -0.12826022 44.52392578 -0.15087891 C49.06264076 -0.17255826 53.60128624 -0.18455823 58.14004898 -0.18975449 C59.87446309 -0.19345909 61.60887326 -0.20069294 63.3432579 -0.21146011 C65.76652086 -0.22590995 68.18949409 -0.2279807 70.61279297 -0.22705078 C71.69604355 -0.23783661 71.69604355 -0.23783661 72.80117798 -0.24884033 C77.77189568 -0.22810432 77.77189568 -0.22810432 80 2 C80.23046875 5.00390625 80.23046875 5.00390625 80.1875 8.5625 C80.18105469 9.73941406 80.17460937 10.91632813 80.16796875 12.12890625 C80 15 80 15 79 16 C76.57142965 16.10029857 74.17128387 16.13618425 71.7421875 16.12939453 C70.98286926 16.13114685 70.22355103 16.13289917 69.44122314 16.13470459 C66.91912584 16.1391233 64.39709807 16.13618506 61.875 16.1328125 C60.13004544 16.13348553 58.38509096 16.13445555 56.64013672 16.13571167 C52.97818105 16.13718867 49.31624972 16.13503403 45.65429688 16.13037109 C40.94955508 16.1246738 36.24487032 16.1279528 31.54013062 16.13394356 C27.93546109 16.13754912 24.33080518 16.13641061 20.72613525 16.13381577 C18.99090569 16.13314648 17.25567491 16.13397496 15.52044678 16.13629532 C13.09953513 16.13882177 10.67871714 16.13498138 8.2578125 16.12939453 C7.53362122 16.13141876 6.80942993 16.13344299 6.06329346 16.13552856 C1.11426266 16.11426266 1.11426266 16.11426266 0 15 C-0.07313567 12.46950598 -0.09247527 9.96695163 -0.0625 7.4375 C-0.05798828 6.72658203 -0.05347656 6.01566406 -0.04882812 5.28320312 C-0.03700864 3.52209987 -0.01907263 1.76103964 0 0 Z " fill="#FAFCFA" transform="translate(118,196)"/>
<path d="M0 0 C6.53272139 5.56046018 9.47491806 10.57967997 10.171875 19.1015625 C10.3248334 23.1855517 9.82654341 26.34691319 8 30 C7.43152344 29.80664062 6.86304688 29.61328125 6.27734375 29.4140625 C4.66127273 28.86907695 3.04259149 28.3317924 1.421875 27.80078125 C-0.49894743 27.16567061 -2.40807841 26.49521717 -4.3125 25.8125 C-12.75079246 23.95321522 -19.99345425 24.37695623 -27.84375 28.02734375 C-29.89102225 28.95084156 -31.81008357 29.52717713 -34 30 C-37.22909729 23.81089687 -38.29504237 17.8517167 -36.4609375 10.98046875 C-33.88708048 4.48925792 -29.96273103 0.47825977 -24 -3 C-15.79859212 -5.54817405 -7.30550742 -4.43803627 0 0 Z " fill="#F6FDF6" transform="translate(168,123)"/>
<path d="M0 0 C2 2 2 2 2 5 C3.32 5.66 4.64 6.32 6 7 C6 10.96 6 14.92 6 19 C2.81794908 20.7425517 0.53240406 21.96805576 -3.125 22.1875 C-6.01332554 22.68885789 -6.01332554 22.68885789 -7.16015625 24.5546875 C-8.94850496 28.04978726 -10.25217028 31.68041055 -11.5625 35.375 C-13 39 -13 39 -16 41 C-19.06786534 41.53673519 -21.93023249 41.5254557 -25 41 C-27.625 39 -27.625 39 -29 36 C-29.01045944 33.17072056 -28.56980866 30.80155927 -28 28 C-29.32 27.34 -30.64 26.68 -32 26 C-32 25.34 -32 24.68 -32 24 C-32.66 24 -33.32 24 -34 24 C-32.75905393 19.03621571 -31.366661 16.71703351 -27 14 C-22.89311819 12.5332565 -19.35968089 11.73577692 -15 12 C-14.773125 11.113125 -14.54625 10.22625 -14.3125 9.3125 C-11.53345192 2.29871199 -7.31272525 -0.45704533 0 0 Z " fill="#243335" transform="translate(266,82)"/>
<path d="M0 0 C1.48680519 -0.00945648 1.48680519 -0.00945648 3.00364685 -0.019104 C4.6145797 -0.01303131 4.6145797 -0.01303131 6.25805664 -0.00683594 C7.35791397 -0.00874939 8.4577713 -0.01066284 9.59095764 -0.01263428 C11.92034127 -0.01399717 14.24973247 -0.01029349 16.57910156 -0.00195312 C20.14999434 0.00873453 23.72038283 -0.00183988 27.29125977 -0.01464844 C29.5510265 -0.01332666 31.81079293 -0.01076389 34.07055664 -0.00683594 C35.14248764 -0.0108844 36.21441864 -0.01493286 37.3188324 -0.019104 C38.81036583 -0.00964752 38.81036583 -0.00964752 40.33203125 0 C41.20758163 0.00159119 42.08313202 0.00318237 42.98521423 0.00482178 C45.23071289 0.25878906 45.23071289 0.25878906 48.23071289 2.25878906 C48.59399414 4.57128906 48.59399414 4.57128906 48.54321289 7.25878906 C48.5393457 8.14566406 48.53547852 9.03253906 48.53149414 9.94628906 C48.23071289 12.25878906 48.23071289 12.25878906 46.23071289 14.25878906 C44.11219788 14.51275635 44.11219788 14.51275635 41.46142578 14.51757812 C39.97462059 14.52703461 39.97462059 14.52703461 38.45777893 14.53668213 C36.84684608 14.53060944 36.84684608 14.53060944 35.20336914 14.52441406 C33.55358315 14.52728424 33.55358315 14.52728424 31.87046814 14.5302124 C29.54108451 14.5315753 27.21169332 14.52787162 24.88232422 14.51953125 C21.31143144 14.50884359 17.74104295 14.51941801 14.17016602 14.53222656 C11.91039928 14.53090479 9.65063285 14.52834202 7.39086914 14.52441406 C6.31893814 14.52846252 5.24700714 14.53251099 4.14259338 14.53668213 C3.14823776 14.53037781 2.15388214 14.52407349 1.12939453 14.51757812 C0.25384415 14.51598694 -0.62170624 14.51439575 -1.52378845 14.51275635 C-3.76928711 14.25878906 -3.76928711 14.25878906 -6.76928711 12.25878906 C-7.13256836 9.94628906 -7.13256836 9.94628906 -7.08178711 7.25878906 C-7.07791992 6.37191406 -7.07405273 5.48503906 -7.07006836 4.57128906 C-6.47708241 0.01222825 -3.99013411 0.00725809 0 0 Z " fill="#067A06" transform="translate(139.769287109375,250.7412109375)"/>
<path d="M0 0 C0.48616916 3.40318413 0.19821586 4.71976379 -1.8125 7.5625 C-6.29556993 11.56297317 -12.48966247 13.76334803 -18.43359375 14.1640625 C-25.33162744 13.6619526 -30.75016934 10.87485888 -36 6.5 C-38 4 -38 4 -38 0 C-36.75264433 -0.6509259 -35.50198168 -1.29551669 -34.25 -1.9375 C-33.55390625 -2.29714844 -32.8578125 -2.65679687 -32.140625 -3.02734375 C-21.74979611 -7.74872403 -9.79785459 -4.8989273 0 0 Z " fill="#11AE11" transform="translate(174,152)"/>
<path d="M0 0 C1.41726634 0.00605669 2.83437696 0.05650211 4.25 0.125 C5.43335938 0.15980469 5.43335938 0.15980469 6.640625 0.1953125 C10.32208592 1.4509101 11.20422412 3.62531101 13 7 C13.96654145 9.73188886 14.63882821 12.48185929 15.25 15.3125 C15.4162085 16.066521 15.58241699 16.82054199 15.75366211 17.59741211 C18.55549853 30.88927819 18.55549853 30.88927819 14.6875 37.3125 C13.81311155 38.55701311 12.9191376 39.78816085 12 41 C11.401875 41.825 10.80375 42.65 10.1875 43.5 C9.795625 43.995 9.40375 44.49 9 45 C9.66 46.32 10.32 47.64 11 49 C10.34 49.99 9.68 50.98 9 52 C8.34 52 7.68 52 7 52 C3.31274231 43.86379759 3.31274231 43.86379759 4.94921875 39.42578125 C5.9010624 37.7646185 6.86600213 36.11089269 7.84375 34.46484375 C9.6809508 30.54837852 9.10874449 27.08299559 8 23 C7.67 22.34 7.34 21.68 7 21 C4.48916886 22.25541557 4.12874554 23.50063488 3 26 C1.9944239 24.54550599 0.99569565 23.08627557 0 21.625 C-0.556875 20.81289062 -1.11375 20.00078125 -1.6875 19.1640625 C-3 17 -3 17 -3 15 C-5.31 15.66 -7.62 16.32 -10 17 C-10.33 18.65 -10.66 20.3 -11 22 C-11.33 22 -11.66 22 -12 22 C-11.88637738 20.5199159 -11.75877092 19.04089926 -11.625 17.5625 C-11.55539063 16.73878906 -11.48578125 15.91507813 -11.4140625 15.06640625 C-11.27742187 14.38449219 -11.14078125 13.70257813 -11 13 C-9 12 -9 12 -6.5625 12.625 C-4.02405035 13.29840183 -4.02405035 13.29840183 -2.3828125 11.84765625 C-0.59575326 9.4598624 -0.50440945 7.76790547 -0.3125 4.8125 C-0.24675781 3.91144531 -0.18101562 3.01039063 -0.11328125 2.08203125 C-0.07589844 1.39496094 -0.03851563 0.70789063 0 0 Z " fill="#527167" transform="translate(252,131)"/>
<path d="M0 0 C3.17578125 0.5234375 3.17578125 0.5234375 5.6953125 3.234375 C6.48800124 4.4375126 7.25132018 5.660381 7.98828125 6.8984375 C8.37846436 7.53458984 8.76864746 8.17074219 9.1706543 8.82617188 C12.09800299 13.84990443 14.15416228 18.59879684 13.17578125 24.5234375 C10.44636949 29.88814338 10.44636949 29.88814338 7.17578125 31.5234375 C0.08619287 32.1045513 0.08619287 32.1045513 -3.76171875 29.6484375 C-7.78037106 25.50800785 -7.02742761 21.54539203 -6.984375 16.00390625 C-6.30168779 1.16794767 -6.30168779 1.16794767 0 0 Z " fill="#6BCC6D" transform="translate(245.82421875,145.4765625)"/>
<path d="M0 0 C0.91898575 0.00202423 1.8379715 0.00404846 2.7848053 0.00613403 C4.22861069 0.00350555 4.22861069 0.00350555 5.70158386 0.00082397 C8.90064773 -0.0035968 12.09965683 -0.00065553 15.29872131 0.00271606 C17.51210541 0.00204303 19.72548944 0.00107302 21.93887329 -0.00018311 C26.58527833 -0.00166043 31.2316642 0.00049538 35.87806702 0.00515747 C41.84495542 0.01085145 47.81179882 0.00757806 53.77868557 0.00158501 C58.35189149 -0.00202251 62.92508668 -0.00088108 67.49829292 0.0017128 C69.69880745 0.00238171 71.89932294 0.00155488 74.09983635 -0.00076675 C77.17193571 -0.00329601 80.24396145 0.00055138 83.3160553 0.00613403 C84.69149757 0.00309769 84.69149757 0.00309769 86.09472656 0 C92.38660158 0.02126557 92.38660158 0.02126557 94.61512756 1.13552856 C94.90253202 8.09139789 95.18705204 15.04738102 95.46961975 22.00344849 C95.56596922 24.36708208 95.66296545 26.7306894 95.76063538 29.0942688 C95.90135803 32.5024853 96.03971179 35.91079122 96.17762756 39.31912231 C96.22137512 40.36635971 96.26512268 41.41359711 96.31019592 42.49256897 C96.54583377 48.37951486 96.65795658 54.24386165 96.61512756 60.13552856 C94.26578285 57.78618385 94.33849204 57.25405186 94.20448303 54.05984497 C94.14464737 52.79680038 94.14464737 52.79680038 94.08360291 51.50823975 C94.05017792 50.59376068 94.01675293 49.67928162 93.98231506 48.73709106 C93.94075287 47.79175507 93.89919067 46.84641907 93.85636902 45.87243652 C93.76973802 43.86347743 93.68766677 41.85431741 93.60975647 39.84500122 C93.49194008 36.80726187 93.36153261 33.7702879 93.22840881 30.73318481 C93.14562772 28.77618514 93.06357471 26.8191545 92.98231506 24.86209106 C92.94484161 23.96785431 92.90736816 23.07361755 92.86875916 22.15228271 C92.61163488 15.46466157 92.61512756 8.84173488 92.61512756 2.13552856 C60.27512756 2.13552856 27.93512756 2.13552856 -5.38487244 2.13552856 C-6.1475911 15.59059446 -6.1475911 15.59059446 -3.38487244 28.13552856 C-3.29796243 30.97982213 -3.26933442 33.79932033 -3.28721619 36.64334106 C-3.28863113 37.48396088 -3.29004608 38.32458069 -3.29150391 39.19067383 C-3.29711006 41.88066131 -3.30966358 44.57056615 -3.32237244 47.26052856 C-3.32738664 49.08214195 -3.33194969 50.90375663 -3.33604431 52.72537231 C-3.34708149 57.19545634 -3.36435024 61.66547843 -3.38487244 66.13552856 C-2.72487244 66.13552856 -2.06487244 66.13552856 -1.38487244 66.13552856 C-1.38487244 78.67552856 -1.38487244 91.21552856 -1.38487244 104.13552856 C-1.71487244 104.13552856 -2.04487244 104.13552856 -2.38487244 104.13552856 C-3.03962724 92.03503878 -3.6917743 79.93441151 -4.34062958 67.83360386 C-4.64202774 62.2142052 -4.94431034 56.59485707 -5.24864197 50.97561646 C-5.54252443 45.54870027 -5.83404734 40.12166192 -6.1239624 34.69453239 C-6.23475826 32.62814792 -6.34639184 30.56180817 -6.45889282 28.49551582 C-6.61680301 25.59251377 -6.77168352 22.68936426 -6.92588806 19.78616333 C-6.97264175 18.93955139 -7.01939545 18.09293945 -7.06756592 17.22067261 C-7.34877154 11.85131123 -7.50870634 6.51241894 -7.38487244 1.13552856 C-5.45670512 -0.79263875 -2.56619425 0.00870276 0 0 Z " fill="#28B727" transform="translate(109.38487243652344,101.86447143554688)"/>
<path d="M0 0 C0.33 0 0.66 0 1 0 C1.06058594 1.05960938 1.12117188 2.11921875 1.18359375 3.2109375 C1.26800127 4.59897221 1.35264917 5.98699232 1.4375 7.375 C1.47681641 8.07367188 1.51613281 8.77234375 1.55664062 9.4921875 C1.74280134 13.37360492 1.74280134 13.37360492 3 17 C3.14510103 19.89154938 3.23429127 22.76278425 3.28125 25.65625 C3.29965942 26.51432251 3.31806885 27.37239502 3.33703613 28.25646973 C3.41583615 31.93631334 3.48349027 35.61634397 3.55224609 39.29638672 C3.60393386 41.97893428 3.66120016 44.66132285 3.71875 47.34375 C3.73232544 48.18023071 3.74590088 49.01671143 3.7598877 49.87854004 C3.74197355 54.0736463 3.74197355 54.0736463 5 58 C5.14475054 60.64990481 5.23416364 63.27772656 5.28125 65.9296875 C5.29965942 66.71642853 5.31806885 67.50316956 5.33703613 68.31375122 C5.3958556 70.83409059 5.44862 73.35449865 5.5 75.875 C5.56775853 79.18503579 5.64148931 82.49486147 5.71875 85.8046875 C5.73911316 86.94549271 5.73911316 86.94549271 5.7598877 88.10934448 C5.84209628 91.62039373 6.14218461 94.56873843 7 98 C7.33 94.04 7.66 90.08 8 86 C8.33 86 8.66 86 9 86 C9.33 93.92 9.66 101.84 10 110 C42.34 110 74.68 110 108 110 C108 103.4 108 96.8 108 90 C108.33 90 108.66 90 109 90 C109.33 97.26 109.66 104.52 110 112 C96.60517051 112.19815658 83.21033228 112.38364427 69.81502724 112.54658794 C63.59561749 112.62275402 57.37638667 112.70455708 51.15722656 112.79907227 C45.15976662 112.89001362 39.16228481 112.96637055 33.16450119 113.03244972 C30.87180995 113.06030464 28.57917729 113.09348975 26.28664017 113.13199425 C23.08512571 113.18487108 19.88393033 113.21909867 16.68212891 113.2487793 C15.72619339 113.26891586 14.77025787 113.28905243 13.78535461 113.30979919 C12.48124382 113.31623444 12.48124382 113.31623444 11.15078735 113.32279968 C10.0142166 113.33800927 10.0142166 113.33800927 8.85468483 113.35352612 C7.93661584 113.17853069 7.93661584 113.17853069 7 113 C4.62643455 109.43965183 4.64358704 107.59197804 4.42163086 103.3515625 C4.38393082 102.6793869 4.34623077 102.0072113 4.30738831 101.31466675 C4.18452214 99.08515184 4.07466512 96.85519248 3.96484375 94.625 C3.88121156 93.06050419 3.79677134 91.49605139 3.71156311 89.93164062 C3.48852665 85.79649697 3.27648569 81.66085924 3.06671143 77.52502441 C2.85504757 73.38873069 2.63319905 69.25298622 2.41210938 65.1171875 C2.03766978 58.09010455 1.67274358 51.06257502 1.3126955 44.0347414 C1.1034667 39.96429795 0.88644024 35.89441281 0.65893555 31.82495117 C0.22133537 23.9836502 -0.15062541 16.16921904 -0.0625 8.3125 C-0.05798828 7.49201172 -0.05347656 6.67152344 -0.04882812 5.82617188 C-0.03747086 3.88407959 -0.0195725 1.94202687 0 0 Z " fill="#24B623" transform="translate(102,162)"/>
<path d="M0 0 C0.45572917 2.01822917 0.91145833 4.03645833 1.3671875 6.0546875 C1.90474428 8.20719964 1.90474428 8.20719964 4 10 C6.20250992 10.46006346 6.20250992 10.46006346 8.625 10.625 C9.44226563 10.69976562 10.25953125 10.77453125 11.1015625 10.8515625 C11.72804688 10.90054688 12.35453125 10.94953125 13 11 C12.26369389 13.08821241 11.51037154 15.17042964 10.75 17.25 C10.33234375 18.41015625 9.9146875 19.5703125 9.484375 20.765625 C7.99042309 24.02086758 6.83124028 25.83462549 4 28 C0.91195534 28.78832126 -1.88665395 28.64433719 -5 28 C-7.625 26 -7.625 26 -9 23 C-9.01045944 20.17072056 -8.56980866 17.80155927 -8 15 C-9.32 14.34 -10.64 13.68 -12 13 C-12 12.34 -12 11.68 -12 11 C-12.66 11 -13.32 11 -14 11 C-12.76141604 6.04566415 -11.27241667 3.81354269 -7 1 C-4 0 -4 0 0 0 Z " fill="#273336" transform="translate(246,95)"/>
<path d="M0 0 C2.87029869 1.79393668 4.49131638 2.98263276 6 6 C6.47925702 10.50973002 6.83100414 14.58036793 4.5 18.5625 C1.047035 20.54795488 -2.02057089 21.20610589 -6 21 C-9.66630514 19.4520045 -12.21110971 17.57778059 -14 14 C-14.81062726 9.25204033 -14.66601017 6.05272575 -12.0625 1.9375 C-7.95859581 -0.65884755 -4.73725096 -0.95259938 0 0 Z " fill="#12AE11" transform="translate(158,124)"/>
<path d="M0 0 C0.33 1.98 0.66 3.96 1 6 C1.66 6 2.32 6 3 6 C3.33 6.66 3.66 7.32 4 8 C4.33 7.01 4.66 6.02 5 5 C7.31 5 9.62 5 12 5 C12.33 9.95 12.66 14.9 13 20 C10.2291017 20.02696009 7.4584655 20.04681952 4.6875 20.0625 C3.90181641 20.07087891 3.11613281 20.07925781 2.30664062 20.08789062 C1.54931641 20.09111328 0.79199219 20.09433594 0.01171875 20.09765625 C-1.03302612 20.10551147 -1.03302612 20.10551147 -2.09887695 20.11352539 C-4 20 -4 20 -7 19 C-9.63804589 19.39397335 -9.63804589 19.39397335 -12 20 C-12 19.01 -12 18.02 -12 17 C-11.484375 16.525625 -10.96875 16.05125 -10.4375 15.5625 C-9.963125 15.046875 -9.48875 14.53125 -9 14 C-9.32843384 11.93618425 -9.32843384 11.93618425 -10 10 C-9.67 9.34 -9.34 8.68 -9 8 C-8.01 8 -7.02 8 -6 8 C-6.33 6.02 -6.66 4.04 -7 2 C-2.25 0 -2.25 0 0 0 Z " fill="#263136" transform="translate(245,308)"/>
<path d="M0 0 C0.33 0 0.66 0 1 0 C1.02685095 2.47923801 1.04676547 4.9581884 1.0625 7.4375 C1.07087891 8.14455078 1.07925781 8.85160156 1.08789062 9.58007812 C1.09653588 11.38693559 1.05220011 13.19387603 1 15 C-0.96428367 16.96428367 -3.98297163 16.12023917 -6.59747314 16.12442017 C-7.5476532 16.12082489 -8.49783325 16.11722961 -9.47680664 16.11352539 C-10.96932198 16.11374443 -10.96932198 16.11374443 -12.49198914 16.1139679 C-15.79806662 16.11326831 -19.10408854 16.10547379 -22.41015625 16.09765625 C-24.69559193 16.09579223 -26.98102801 16.09436825 -29.26646423 16.09336853 C-35.29498387 16.08954207 -41.32347959 16.0797107 -47.35198975 16.06866455 C-53.49832841 16.05845317 -59.64467093 16.0538715 -65.79101562 16.04882812 C-77.86068762 16.03808854 -89.93034182 16.0210106 -102 16 C-102.33 15.01 -102.66 14.02 -103 13 C-69.34 13 -35.68 13 -1 13 C-1 10.03 -1 7.06 -1 4 C-0.67 2.68 -0.34 1.36 0 0 Z " fill="#20AD21" transform="translate(213,261)"/>
<path d="M0 0 C3 1 3 1 4.8125 3.1875 C6 6 6 6 5.625 8.75 C2.76064825 14.47870351 -0.85533523 20.53970484 -7 23 C-9.56542969 23.22705078 -9.56542969 23.22705078 -12.421875 23.1953125 C-13.95908203 23.18564453 -13.95908203 23.18564453 -15.52734375 23.17578125 C-16.59082031 23.15902344 -17.65429688 23.14226562 -18.75 23.125 C-20.36841797 23.11146484 -20.36841797 23.11146484 -22.01953125 23.09765625 C-24.67991278 23.07411305 -27.33984336 23.04122799 -30 23 C-30 22.34 -30 21.68 -30 21 C-30.66 21 -31.32 21 -32 21 C-32 19.68 -32 18.36 -32 17 C-30.02 17 -28.04 17 -26 17 C-26 17.66 -26 18.32 -26 19 C-24.3745692 18.85904936 -22.74965949 18.71207913 -21.125 18.5625 C-20.22007812 18.48128906 -19.31515625 18.40007812 -18.3828125 18.31640625 C-15.98889139 18.13010715 -15.98889139 18.13010715 -14 17 C-12.00039988 16.960008 -9.99952758 16.95653201 -8 17 C-7.73445313 16.30519531 -7.46890625 15.61039063 -7.1953125 14.89453125 C-5.89396924 11.74323924 -4.41296617 8.72999829 -2.875 5.6875 C-2.33617187 4.61886719 -1.79734375 3.55023438 -1.2421875 2.44921875 C-0.83226562 1.64097656 -0.42234375 0.83273438 0 0 Z " fill="#FB8D7C" transform="translate(218,145)"/>
<path d="M0 0 C2.31 0 4.62 0 7 0 C7 0.33 7 0.66 7 1 C9.31 1.33 11.62 1.66 14 2 C14 2.66 14 3.32 14 4 C15.65 4 17.3 4 19 4 C19 4.66 19 5.32 19 6 C18.21625 5.835 17.4325 5.67 16.625 5.5 C9.12697696 4.46578993 2.77721341 4.14629041 -4 8 C-9.11749981 12.53596574 -12.59270255 16.39440573 -13.203125 23.296875 C-13.31728979 29.27149888 -12.42837232 33.53616228 -10 39 C-11.98 39.66 -13.96 40.32 -16 41 C-18.48421739 35.93272368 -19.52198675 31.75104755 -19.4375 26.0625 C-19.43137695 25.35955811 -19.42525391 24.65661621 -19.41894531 23.93237305 C-19.25162068 18.38556154 -18.26765005 14.44669904 -15 10 C-14.0409375 8.5459375 -14.0409375 8.5459375 -13.0625 7.0625 C-10.69896283 4.69896283 -9.28581756 4.27381813 -6 4 C-6 4.66 -6 5.32 -6 6 C-4.02 5.01 -2.04 4.02 0 3 C0 2.01 0 1.02 0 0 Z " fill="#59C457" transform="translate(145,115)"/>
<path d="M0 0 C0.33 0 0.66 0 1 0 C1.33 4.29 1.66 8.58 2 13 C2.33 13 2.66 13 3 13 C4.91173214 46.99905236 6.51749319 80.94728216 7 115 C6.34 114.67 5.68 114.34 5 114 C4.97494385 112.9805127 4.9498877 111.96102539 4.92407227 110.91064453 C4.83002996 107.13479646 4.72980163 103.35913373 4.62768555 99.58349609 C4.58432462 97.94812347 4.54265039 96.31270523 4.50268555 94.67724609 C4.44501088 92.32896159 4.38130871 89.98090696 4.31640625 87.6328125 C4.29969376 86.89942657 4.28298126 86.16604065 4.26576233 85.41043091 C4.21362038 81.57797692 4.21362038 81.57797692 3 78 C2.73634236 74.77385576 2.5556966 71.55452624 2.39453125 68.32226562 C2.49806566 64.86745986 2.49806566 64.86745986 1 62 C0.84827571 60.53077499 0.76196227 59.05471371 0.70288086 57.57885742 C0.66291489 56.63664841 0.62294891 55.69443939 0.58177185 54.72367859 C0.54318558 53.69466934 0.5045993 52.6656601 0.46484375 51.60546875 C0.42186661 50.54773758 0.37888947 49.49000641 0.33460999 48.40022278 C0.24416444 46.14979896 0.15605708 43.89928017 0.07006836 41.64868164 C-0.06048316 38.24015703 -0.19853393 34.83200283 -0.33789062 31.42382812 C-0.42493049 29.2343929 -0.51153216 27.04494019 -0.59765625 24.85546875 C-0.63826675 23.84872604 -0.67887726 22.84198334 -0.72071838 21.80473328 C-1.28400456 6.85750198 -1.28400456 6.85750198 -1 1 C-0.67 0.67 -0.34 0.34 0 0 Z " fill="#17AD17" transform="translate(100,99)"/>
<path d="M0 0 C4.96622349 -0.02465098 9.93241166 -0.04283649 14.89868164 -0.05493164 C16.58944316 -0.0599719 18.28020029 -0.06680405 19.97094727 -0.07543945 C22.39600707 -0.08751857 24.82100944 -0.09323123 27.24609375 -0.09765625 C28.38672523 -0.10539818 28.38672523 -0.10539818 29.55039978 -0.11329651 C31.3673257 -0.11349238 33.18413127 -0.06197277 35 0 C36 1 36 1 36.125 3.5 C36 6 36 6 35 7 C32.49075847 7.10087212 30.00963616 7.13972032 27.5 7.1328125 C26.74912109 7.13376923 25.99824219 7.13472595 25.22460938 7.13571167 C23.63411373 7.13639338 22.04361533 7.13453972 20.453125 7.13037109 C18.01035345 7.12502267 15.56776579 7.13031634 13.125 7.13671875 C11.58333293 7.13605797 10.04166597 7.1347768 8.5 7.1328125 C7.76458984 7.13483673 7.02917969 7.13686096 6.27148438 7.13894653 C1.11495161 7.11495161 1.11495161 7.11495161 0 6 C-0.04080783 4.00041636 -0.04254356 1.99954746 0 0 Z " fill="#057905" transform="translate(139,183)"/>
<path d="M0 0 C4.95707346 15.78591845 4.95707346 15.78591845 1.98046875 22.1953125 C0.74457822 24.21903657 -0.56759338 26.11144008 -2 28 C-2.598125 28.825 -3.19625 29.65 -3.8125 30.5 C-4.204375 30.995 -4.59625 31.49 -5 32 C-4.34 33.32 -3.68 34.64 -3 36 C-3.66 36.99 -4.32 37.98 -5 39 C-5.66 39 -6.32 39 -7 39 C-8.49455516 35.70215529 -9.57706131 32.60741828 -10 29 C-9.05078125 26.63671875 -9.05078125 26.63671875 -7.625 24.3125 C-4.15640808 18.58613696 -5.06679965 13.64991006 -5.99609375 7.3203125 C-6 4 -6 4 -4.16015625 1.5546875 C-2 0 -2 0 0 0 Z " fill="#FA8D7B" transform="translate(266,144)"/>
<path d="M0 0 C6.6 0 13.2 0 20 0 C19.01 0.495 19.01 0.495 18 1 C18 1.66 18 2.32 18 3 C18.66 3 19.32 3 20 3 C20.02505615 4.23153809 20.0501123 5.46307617 20.07592773 6.73193359 C20.16992612 11.29047493 20.27016515 15.84886118 20.37231445 20.40722656 C20.41569203 22.38212462 20.457365 24.35706087 20.49731445 26.33203125 C20.55494873 29.1667839 20.6186627 32.00134378 20.68359375 34.8359375 C20.70030624 35.72243988 20.71701874 36.60894226 20.73423767 37.52230835 C20.71085211 41.89925155 20.71085211 41.89925155 22 46 C22.08675538 48.69893181 22.11557897 51.37169231 22.09765625 54.0703125 C22.0962413 54.86654022 22.09482635 55.66276794 22.09336853 56.48312378 C22.08776345 59.0304538 22.07521014 61.57769647 22.0625 64.125 C22.05748565 65.85025915 22.05292263 67.57551967 22.04882812 69.30078125 C22.03779237 73.53388791 22.02052436 77.76692914 22 82 C19.09840387 79.09840387 19.6646218 76.07447027 19.62109375 72.18359375 C19.60409927 71.41193375 19.5871048 70.64027374 19.56959534 69.8452301 C19.51638048 67.37607022 19.47612605 64.9069279 19.4375 62.4375 C19.39362768 59.96458732 19.34697526 57.49180774 19.29469299 55.01905823 C19.26264361 53.47890681 19.23578258 51.93863747 19.21446228 50.39830017 C19.460547 46.90589146 19.460547 46.90589146 18 44 C17.91138008 41.1883662 17.88477645 38.40141745 17.90234375 35.58984375 C17.9037587 34.74780899 17.90517365 33.90577423 17.90663147 33.03822327 C17.91224737 30.33794665 17.92480252 27.63775172 17.9375 24.9375 C17.94251295 23.11132932 17.94707621 21.28515734 17.95117188 19.45898438 C17.96222196 14.97262458 17.97949721 10.48632616 18 6 C17.34 6 16.68 6 16 6 C16 4.68 16 3.36 16 2 C10.72 1.67 5.44 1.34 0 1 C0 0.67 0 0.34 0 0 Z " fill="#2AB82A" transform="translate(188,168)"/>
<path d="M0 0 C1.98 1.32 3.96 2.64 6 4 C5.773125 5.2375 5.54625 6.475 5.3125 7.75 C4.97959716 10.557315 4.90750085 11.77453331 6 14.4375 C8.84275306 16.65840083 11.4665468 16.73332429 15 17 C15.33 19.64 15.66 22.28 16 25 C12.04 25 8.08 25 4 25 C4.66 24.67 5.32 24.34 6 24 C6 22.35 6 20.7 6 19 C5.071875 18.71125 4.14375 18.4225 3.1875 18.125 C-0.91643814 15.38904124 -1.50196012 13.10847279 -2.671875 8.44921875 C-3.08019958 5.40136739 -2.66768199 3.58490708 -1 1 C-0.67 0.67 -0.34 0.34 0 0 Z " fill="#ED8879" transform="translate(233,106)"/>
<path d="M0 0 C0.33 0 0.66 0 1 0 C1.06058594 1.05960938 1.12117188 2.11921875 1.18359375 3.2109375 C1.26800127 4.59897221 1.35264917 5.98699232 1.4375 7.375 C1.47681641 8.07367188 1.51613281 8.77234375 1.55664062 9.4921875 C1.74280134 13.37360492 1.74280134 13.37360492 3 17 C3.14510103 19.89154938 3.23429127 22.76278425 3.28125 25.65625 C3.29965942 26.51432251 3.31806885 27.37239502 3.33703613 28.25646973 C3.41583615 31.93631334 3.48349027 35.61634397 3.55224609 39.29638672 C3.60393386 41.97893428 3.66120016 44.66132285 3.71875 47.34375 C3.73232544 48.18023071 3.74590088 49.01671143 3.7598877 49.87854004 C3.74197355 54.0736463 3.74197355 54.0736463 5 58 C5.15720212 60.50962617 5.25864794 62.99550878 5.31640625 65.5078125 C5.33718735 66.26609344 5.35796844 67.02437439 5.37937927 67.80563354 C5.42270739 69.42130821 5.46374128 71.03704575 5.50268555 72.65283203 C5.56109421 75.06689803 5.62654268 77.48068502 5.69335938 79.89453125 C5.96015494 89.93208522 6.05444887 99.9589373 6 110 C5.67 110 5.34 110 5 110 C4.49539618 100.94052834 3.99111038 91.88103905 3.48720646 82.82152843 C3.25309544 78.61270005 3.01888376 74.40387732 2.78442383 70.19506836 C2.29936035 61.48654526 1.81563748 52.77795166 1.33563328 44.06914806 C1.11026374 39.9831733 0.88156209 35.89740389 0.65014648 31.81176758 C0.21206923 23.97548059 -0.15056721 16.16403069 -0.0625 8.3125 C-0.05798828 7.49201172 -0.05347656 6.67152344 -0.04882812 5.82617188 C-0.03747086 3.88407959 -0.0195725 1.94202687 0 0 Z " fill="#38B338" transform="translate(102,162)"/>
<path d="M0 0 C0.33 0 0.66 0 1 0 C1.28716172 5.42590542 1.57191545 10.85193003 1.85449219 16.27807617 C1.95084426 18.12186042 2.04784057 19.96561112 2.14550781 21.80932617 C2.2862236 24.46784935 2.42457991 27.12648674 2.5625 29.78515625 C2.60624756 30.60210464 2.64999512 31.41905304 2.69506836 32.26075745 C2.93047644 36.84810672 3.042954 41.4066071 3 46 C1.68 46 0.36 46 -1 46 C-1.82038591 39.598406 -2.12754513 33.38697499 -2.0625 26.9375 C-2.05798828 26.07189453 -2.05347656 25.20628906 -2.04882812 24.31445312 C-2.03719913 22.20960461 -2.01927073 20.10479242 -2 18 C-1.67 18 -1.34 18 -1 18 C-0.505 9.09 -0.505 9.09 0 0 Z " fill="#14AB11" transform="translate(207,116)"/>
<path d="M0 0 C3.25 0.125 3.25 0.125 7 1 C10.33645286 4.77545982 11.52566477 8.01948007 12 13 C10.35 14.32 8.7 15.64 7 17 C7 16.34 7 15.68 7 15 C3.95086772 13.98888907 3.95086772 13.98888907 1 15 C1.33 10.71 1.66 6.42 2 2 C1.34 2 0.68 2 0 2 C0 1.34 0 0.68 0 0 Z " fill="#5E6C74" transform="translate(254,131)"/>
<path d="M0 0 C0.9590625 0.2784375 0.9590625 0.2784375 1.9375 0.5625 C6.07334611 1.15333516 9.8851173 0.58271759 14 0 C14 2.31 14 4.62 14 7 C11.20775927 7.08071788 8.41783434 7.14035408 5.625 7.1875 C4.8309375 7.21263672 4.036875 7.23777344 3.21875 7.26367188 C1.14413852 7.29004405 -0.93100865 7.15486462 -3 7 C-3.66 6.01 -4.32 5.02 -5 4 C-4.360625 3.71125 -3.72125 3.4225 -3.0625 3.125 C-0.84793921 2.17176549 -0.84793921 2.17176549 0 0 Z " fill="#2C383E" transform="translate(244,321)"/>
<path d="M0 0 C1.65 0 3.3 0 5 0 C5.33 2.31 5.66 4.62 6 7 C8.64 7.99 11.28 8.98 14 10 C13.67 10.66 13.34 11.32 13 12 C4.96043727 12.77303488 4.96043727 12.77303488 1.4375 9.9375 C-0.29233945 6.4026107 -0.30495508 3.88817732 0 0 Z " fill="#14A818" transform="translate(246,94)"/>
<path d="M0 0 C0.53625 0.185625 1.0725 0.37125 1.625 0.5625 C4.61990614 1.11419324 7.03745829 0.60597444 10 0 C10.33 2.64 10.66 5.28 11 8 C7.04 8 3.08 8 -1 8 C-0.34 7.67 0.32 7.34 1 7 C1.15149298 3.37114676 1.15149298 3.37114676 0 0 Z " fill="#F8907D" transform="translate(238,123)"/>
<path d="M0 0 C0.33 0 0.66 0 1 0 C0.31783402 9.92731018 0.31783402 9.92731018 -1 14.375 C-2.50552738 19.83253674 -2.67796707 25.36442373 -3 31 C-3.33 31 -3.66 31 -4 31 C-6.06700405 19.37310221 -4.83809831 10.86844229 0 0 Z " fill="#152028" transform="translate(246,211)"/>
<path d="M0 0 C2.475 0.495 2.475 0.495 5 1 C5 1.66 5 2.32 5 3 C7.41700987 2.85870713 9.83350429 2.71213513 12.25 2.5625 C12.93191406 2.52318359 13.61382812 2.48386719 14.31640625 2.44335938 C17.64448041 2.23333528 20.80255402 1.98065998 24 1 C24 1.99 24 2.98 24 4 C21.62384014 5.18807993 20.1488258 5.12914522 17.5 5.1328125 C16.1696875 5.13474609 16.1696875 5.13474609 14.8125 5.13671875 C13.884375 5.13285156 12.95625 5.12898437 12 5.125 C10.6078125 5.13080078 10.6078125 5.13080078 9.1875 5.13671875 C8.300625 5.13542969 7.41375 5.13414062 6.5 5.1328125 C5.6853125 5.13168457 4.870625 5.13055664 4.03125 5.12939453 C2 5 2 5 0 4 C0 2.68 0 1.36 0 0 Z " fill="#FF8680" transform="translate(186,162)"/>
<path d="M0 0 C2.31 0 4.62 0 7 0 C7 0.33 7 0.66 7 1 C9.31 1.33 11.62 1.66 14 2 C14 2.66 14 3.32 14 4 C15.65 4 17.3 4 19 4 C19 4.66 19 5.32 19 6 C18.21625 5.835 17.4325 5.67 16.625 5.5 C8.9502471 4.44141339 2.94519944 4.38270862 -4 8 C-4.99 8.495 -4.99 8.495 -6 9 C-6.33 8.01 -6.66 7.02 -7 6 C-4.69 5.01 -2.38 4.02 0 3 C0 2.01 0 1.02 0 0 Z " fill="#69C768" transform="translate(145,115)"/>
<path d="M0 0 C2.23318995 4.46637991 3.11664144 7.03570488 3.0625 12.125 C3.05347656 13.22070312 3.04445312 14.31640625 3.03515625 15.4453125 C3.02355469 16.28835937 3.01195312 17.13140625 3 18 C2.67 18 2.34 18 2 18 C1.67 16.35 1.34 14.7 1 13 C0.34 14.65 -0.32 16.3 -1 18 C-1.33 18 -1.66 18 -2 18 C-2.05397335 15.5622037 -2.09365616 13.12560315 -2.125 10.6875 C-2.14175781 9.99720703 -2.15851563 9.30691406 -2.17578125 8.59570312 C-2.21217794 4.82864604 -2.14378864 3.21568296 0 0 Z " fill="#47C246" transform="translate(181,132)"/>
<path d="M0 0 C0.66 0 1.32 0 2 0 C3 1 4 2 5 3 C5.99 3.33 6.98 3.66 8 4 C8 5.65 8 7.3 8 9 C7.67 9 7.34 9 7 9 C6.95101562 10.04800781 6.90203125 11.09601563 6.8515625 12.17578125 C6.77651857 13.55471354 6.70097143 14.9336185 6.625 16.3125 C6.5940625 17.00279297 6.563125 17.69308594 6.53125 18.40429688 C6.31875081 22.06990789 6.08066139 23.87900792 4 27 C3.34 27 2.68 27 2 27 C2.33 26.01 2.66 25.02 3 24 C5.16745519 16.23458501 3.78938152 10.32754627 1 3 C0.67 2.01 0.34 1.02 0 0 Z " fill="#70C971" transform="translate(173,128)"/>
<path d="M0 0 C0.89203125 0.00902344 1.7840625 0.01804687 2.703125 0.02734375 C3.37859375 0.03894531 4.0540625 0.05054687 4.75 0.0625 C3.76 0.3925 2.77 0.7225 1.75 1.0625 C1.75 1.7225 1.75 2.3825 1.75 3.0625 C-1.55 2.7325 -4.85 2.4025 -8.25 2.0625 C-7.92 3.3825 -7.59 4.7025 -7.25 6.0625 C-9.89738916 7.5231285 -11.14448334 8.0625 -14.25 8.0625 C-14.25 7.4025 -14.25 6.7425 -14.25 6.0625 C-15.24 5.7325 -16.23 5.4025 -17.25 5.0625 C-16.00264433 4.4115741 -14.75198168 3.76698331 -13.5 3.125 C-12.80390625 2.76535156 -12.1078125 2.40570313 -11.390625 2.03515625 C-7.51606486 0.27463531 -4.24202098 -0.05581607 0 0 Z " fill="#4BC44A" transform="translate(153.25,112.9375)"/>
<path d="M0 0 C2.31 0 4.62 0 7 0 C7 2.64 7 5.28 7 8 C4.69 8 2.38 8 0 8 C0 5.36 0 2.72 0 0 Z " fill="#E68577" transform="translate(250,313)"/>
<path d="M0 0 C0.33 2.31 0.66 4.62 1 7 C-1.64738916 8.4606285 -2.89448334 9 -6 9 C-6.33 6.69 -6.66 4.38 -7 2 C-2.25 0 -2.25 0 0 0 Z " fill="#E98674" transform="translate(245,308)"/>
<path d="M0 0 C2.10241603 -0.13496251 4.2072961 -0.23197307 6.3125 -0.3125 C7.48425781 -0.37050781 8.65601563 -0.42851562 9.86328125 -0.48828125 C10.89839844 -0.32714844 11.93351563 -0.16601562 13 0 C13.99 1.65 14.98 3.3 16 5 C11.05 4.67 6.1 4.34 1 4 C0.67 2.68 0.34 1.36 0 0 Z " fill="#134B1F" transform="translate(227,171)"/>
<path d="M0 0 C3.86379545 3.00517424 6.90983192 5.45081065 9 10 C8.67 10.66 8.34 11.32 8 12 C7.34 11.67 6.68 11.34 6 11 C5.67 11.66 5.34 12.32 5 13 C4.34 11.35 3.68 9.7 3 8 C2.34 8 1.68 8 1 8 C1 7.01 1 6.02 1 5 C0.34 4.67 -0.32 4.34 -1 4 C-0.34 3.67 0.32 3.34 1 3 C0.67 2.01 0.34 1.02 0 0 Z " fill="#48C347" transform="translate(172,120)"/>
<path d="M0 0 C6.6 0 13.2 0 20 0 C19.01 0.495 19.01 0.495 18 1 C18 1.66 18 2.32 18 3 C18.66 3 19.32 3 20 3 C20 7.62 20 12.24 20 17 C19.67 17 19.34 17 19 17 C19 13.37 19 9.74 19 6 C18.01 6 17.02 6 16 6 C16 4.68 16 3.36 16 2 C10.72 1.67 5.44 1.34 0 1 C0 0.67 0 0.34 0 0 Z " fill="#21AA1C" transform="translate(188,168)"/>
<path d="M0 0 C1.875 0.25 1.875 0.25 4 1 C5.25 3.0625 5.25 3.0625 6 5 C6.66 5 7.32 5 8 5 C8.33 5.99 8.66 6.98 9 8 C9.66 8.33 10.32 8.66 11 9 C10.67 10.32 10.34 11.64 10 13 C9.01 13 8.02 13 7 13 C7 11.68 7 10.36 7 9 C6.34 9 5.68 9 5 9 C4.9175 8.21625 4.835 7.4325 4.75 6.625 C4.27193661 3.85250896 4.27193661 3.85250896 1.9375 2.6875 C1.298125 2.460625 0.65875 2.23375 0 2 C0 1.34 0 0.68 0 0 Z " fill="#477D5B" transform="translate(230,131)"/>
<path d="M0 0 C1.98 0.495 1.98 0.495 4 1 C4.26252625 5.33168317 3.29243536 8.8803623 2 13 C1.67 13 1.34 13 1 13 C0.67 14.98 0.34 16.96 0 19 C-0.33 19 -0.66 19 -1 19 C-1.02697137 16.39576408 -1.04682489 13.79180756 -1.0625 11.1875 C-1.07087891 10.44951172 -1.07925781 9.71152344 -1.08789062 8.95117188 C-1.10259828 5.70077932 -1.03531702 3.10595105 0 0 Z " fill="#4CC54C" transform="translate(127,130)"/>
<path d="M0 0 C0.33 0 0.66 0 1 0 C1 4.62 1 9.24 1 14 C-0.32 14 -1.64 14 -3 14 C-3.33 14.99 -3.66 15.98 -4 17 C-4 16.01 -4 15.02 -4 14 C-5.98 14 -7.96 14 -10 14 C-10 13.67 -10 13.34 -10 13 C-5.545 12.505 -5.545 12.505 -1 12 C-1.01160156 11.30132812 -1.02320313 10.60265625 -1.03515625 9.8828125 C-1.04417969 8.97273437 -1.05320313 8.06265625 -1.0625 7.125 C-1.07410156 6.22007812 -1.08570313 5.31515625 -1.09765625 4.3828125 C-1 2 -1 2 0 0 Z " fill="#4B795C" transform="translate(238,157)"/>
<path d="M0 0 C2.64025891 3.12030598 4.06609915 6.00969635 5 10 C4.01 11.485 4.01 11.485 3 13 C2.34 13 1.68 13 1 13 C0.44213732 11.40139351 -0.09579568 9.79582095 -0.625 8.1875 C-0.92664063 7.29417969 -1.22828125 6.40085938 -1.5390625 5.48046875 C-2 3 -2 3 0 0 Z " fill="#F49776" transform="translate(258,170)"/>
<path d="M0 0 C7.60344828 0.60344828 7.60344828 0.60344828 10 3 C9.625 5.125 9.625 5.125 9 7 C8.34 5.68 7.68 4.36 7 3 C4.69 3.66 2.38 4.32 0 5 C-0.33 6.65 -0.66 8.3 -1 10 C-1.33 10 -1.66 10 -2 10 C-1.85950482 8.52031676 -1.71245174 7.04125484 -1.5625 5.5625 C-1.48128906 4.73878906 -1.40007812 3.91507813 -1.31640625 3.06640625 C-1 1 -1 1 0 0 Z " fill="#388F45" transform="translate(242,143)"/>
<path d="M0 0 C0.33 0 0.66 0 1 0 C1.06058594 1.27617187 1.12117188 2.55234375 1.18359375 3.8671875 C1.26799568 5.53647016 1.35264386 7.20574037 1.4375 8.875 C1.47681641 9.71675781 1.51613281 10.55851563 1.55664062 11.42578125 C1.59853516 12.23144531 1.64042969 13.03710938 1.68359375 13.8671875 C1.73858032 14.98262939 1.73858032 14.98262939 1.79467773 16.12060547 C1.89955865 18.08864312 1.89955865 18.08864312 3 20 C2.71887936 22.00800456 2.38932033 24.01014051 2 26 C1.67 26 1.34 26 1 26 C-0.15664737 20.51730931 -0.11416255 15.19660726 -0.0625 9.625 C-0.05798828 8.69816406 -0.05347656 7.77132812 -0.04882812 6.81640625 C-0.03711574 4.54420291 -0.02071372 2.27213612 0 0 Z M-1 25 C-0.34 25.66 0.32 26.32 1 27 C0.01 28.485 0.01 28.485 -1 30 C-1 28.35 -1 26.7 -1 25 Z " fill="#18AE19" transform="translate(106,188)"/>
<path d="M0 0 C-0.28875 0.53625 -0.5775 1.0725 -0.875 1.625 C-2.16711808 4.35280484 -3.08558592 7.12612718 -4 10 C-6.15377564 7.37801226 -7.40072174 5.35595828 -8 2 C-4.91190305 0.23537317 -3.76687864 0 0 0 Z " fill="#5CC45D" transform="translate(136,126)"/>
<path d="M0 0 C1.875 0.25 1.875 0.25 4 1 C5.375 2.8125 5.375 2.8125 6 5 C5.125 7.25 5.125 7.25 4 9 C-1.75 4.25 -1.75 4.25 -4 2 C-2.68 2 -1.36 2 0 2 C0 1.34 0 0.68 0 0 Z " fill="#61C85F" transform="translate(168,119)"/>
<path d="M0 0 C0.99 0 1.98 0 3 0 C3.36923077 5.53846154 3.36923077 5.53846154 1.5 7.875 C0.7575 8.431875 0.7575 8.431875 0 9 C0.66 9.66 1.32 10.32 2 11 C0.35 11.33 -1.3 11.66 -3 12 C-3 11.01 -3 10.02 -3 9 C-2.484375 8.525625 -1.96875 8.05125 -1.4375 7.5625 C-0.963125 7.046875 -0.48875 6.53125 0 6 C-0.32843384 3.93618425 -0.32843384 3.93618425 -1 2 C-0.67 1.34 -0.34 0.68 0 0 Z " fill="#3D6A45" transform="translate(236,316)"/>
<path d="M0 0 C0 0.66 0 1.32 0 2 C-3.05919388 3.01973129 -5.12418025 3.11533602 -8.32421875 3.09765625 C-9.35224609 3.09443359 -10.38027344 3.09121094 -11.43945312 3.08789062 C-12.51130859 3.07951172 -13.58316406 3.07113281 -14.6875 3.0625 C-15.77095703 3.05798828 -16.85441406 3.05347656 -17.97070312 3.04882812 C-20.64719085 3.03703743 -23.32356777 3.02058063 -26 3 C-26 2.67 -26 2.34 -26 2 C-25.40461426 1.97494385 -24.80922852 1.9498877 -24.19580078 1.92407227 C-21.50530864 1.80822506 -18.8151766 1.68544804 -16.125 1.5625 C-15.18785156 1.52318359 -14.25070313 1.48386719 -13.28515625 1.44335938 C-12.38925781 1.40146484 -11.49335938 1.35957031 -10.5703125 1.31640625 C-9.32918701 1.26141968 -9.32918701 1.26141968 -8.06298828 1.20532227 C-4.89955759 0.89047668 -3.47120033 0 0 0 Z " fill="#DFA16E" transform="translate(214,165)"/>
<path d="M0 0 C2.97 0.495 2.97 0.495 6 1 C6.33 1.99 6.66 2.98 7 4 C6.34 4.66 5.68 5.32 5 6 C2.97954558 5.39816251 0.97888961 4.72693904 -1 4 C-1.33 3.34 -1.66 2.68 -2 2 C-1.34 2 -0.68 2 0 2 C0 1.34 0 0.68 0 0 Z " fill="#6CC371" transform="translate(243,139)"/>
<path d="M0 0 C0.66 0.33 1.32 0.66 2 1 C0.7625 2.051875 0.7625 2.051875 -0.5 3.125 C-3.30423396 5.78627227 -3.30423396 5.78627227 -3.3125 9.3125 C-3.209375 10.199375 -3.10625 11.08625 -3 12 C-2.34 12.33 -1.68 12.66 -1 13 C-1 14.65 -1 16.3 -1 18 C-3.42233615 16.25894589 -4.81559356 14.87470667 -5.44140625 11.90625 C-5.67617755 7.36228942 -5.46648366 5.57144248 -2.5 1.9375 C-1.2625 0.9784375 -1.2625 0.9784375 0 0 Z " fill="#2EAF2F" transform="translate(149,124)"/>
<path d="M0 0 C0.99 0 1.98 0 3 0 C3 0.66 3 1.32 3 2 C10.55038422 1.34650367 10.55038422 1.34650367 18 0 C17.67 0.99 17.34 1.98 17 3 C12.05 3 7.1 3 2 3 C2 2.34 2 1.68 2 1 C1.34 0.67 0.68 0.34 0 0 Z " fill="#E2996D" transform="translate(189,162)"/>
<path d="M0 0 C0.66 0 1.32 0 2 0 C3 1 4 2 5 3 C5.99 3.33 6.98 3.66 8 4 C8 5.65 8 7.3 8 9 C5.6875 8.4375 5.6875 8.4375 3 7 C1.65223022 4.72037377 0.88635784 2.51912228 0 0 Z " fill="#5CC55E" transform="translate(173,128)"/>
<path d="M0 0 C1.32 0 2.64 0 4 0 C4.33 1.32 4.66 2.64 5 4 C3.35 4.33 1.7 4.66 0 5 C-0.5625 3.0625 -0.5625 3.0625 -1 1 C-0.67 0.67 -0.34 0.34 0 0 Z " fill="#495251" transform="translate(135,228)"/>
<path d="M0 0 C2.0625 0.4375 2.0625 0.4375 4 1 C3.67 2.65 3.34 4.3 3 6 C2.01 6 1.02 6 0 6 C-0.38218767 4.34385343 -0.71395102 2.67542976 -1 1 C-0.67 0.67 -0.34 0.34 0 0 Z " fill="#465155" transform="translate(134,201)"/>
<path d="M0 0 C1.32 0.66 2.64 1.32 4 2 C3.67 3.32 3.34 4.64 3 6 C1.68 5.67 0.36 5.34 -1 5 C-0.67 3.35 -0.34 1.7 0 0 Z " fill="#475055" transform="translate(151,201)"/>
<path d="M0 0 C1.32 0.66 2.64 1.32 4 2 C3.67 3.32 3.34 4.64 3 6 C1.68 5.67 0.36 5.34 -1 5 C-0.67 3.35 -0.34 1.7 0 0 Z " fill="#454E52" transform="translate(126,201)"/>
<path d="M0 0 C3.96 0 7.92 0 12 0 C12 0.66 12 1.32 12 2 C8.04 2 4.08 2 0 2 C0 1.34 0 0.68 0 0 Z " fill="#1AAD1C" transform="translate(174,95)"/>
<path d="M0 0 C0.33 0 0.66 0 1 0 C1 2.31 1 4.62 1 7 C-3.62 7 -8.24 7 -13 7 C-13 6.67 -13 6.34 -13 6 C-7.555 5.505 -7.555 5.505 -2 5 C-1.34 3.35 -0.68 1.7 0 0 Z " fill="#3E4A4D" transform="translate(257,321)"/>
<path d="M0 0 C0 0.66 0 1.32 0 2 C-0.99 2.33 -1.98 2.66 -3 3 C-4.21869929 5.50447516 -4.21869929 5.50447516 -5 8 C-5.99 7.34 -6.98 6.68 -8 6 C-7.8125 4.125 -7.8125 4.125 -7 2 C-4.55683729 0.74709605 -2.75474605 0 0 0 Z " fill="#353432" transform="translate(246,315)"/>
<path d="M0 0 C2.475 0.495 2.475 0.495 5 1 C5.33 2.32 5.66 3.64 6 5 C3.03 4.505 3.03 4.505 0 4 C0 2.68 0 1.36 0 0 Z " fill="#F59279" transform="translate(186,162)"/>
<path d="M0 0 C1.32 0 2.64 0 4 0 C3.67 2.31 3.34 4.62 3 7 C2.01 7 1.02 7 0 7 C0 4.69 0 2.38 0 0 Z " fill="#09A90B" transform="translate(246,94)"/>
<path d="M0 0 C1.98 0.495 1.98 0.495 4 1 C4 2.32 4 3.64 4 5 C2.35 4.67 0.7 4.34 -1 4 C-0.67 2.68 -0.34 1.36 0 0 Z " fill="#363F3F" transform="translate(152,228)"/>
<path d="M0 0 C1.98 0.495 1.98 0.495 4 1 C3.67 2.32 3.34 3.64 3 5 C1.68 5 0.36 5 -1 5 C-0.67 3.35 -0.34 1.7 0 0 Z " fill="#3A4246" transform="translate(144,228)"/>
<path d="M0 0 C2.475 0.495 2.475 0.495 5 1 C4.67 2.32 4.34 3.64 4 5 C2.68 5 1.36 5 0 5 C0 3.35 0 1.7 0 0 Z " fill="#3E474C" transform="translate(168,228)"/>
<path d="M0 0 C1.98 0.495 1.98 0.495 4 1 C4 2.32 4 3.64 4 5 C2.35 4.67 0.7 4.34 -1 4 C-0.67 2.68 -0.34 1.36 0 0 Z " fill="#3C4248" transform="translate(160,228)"/>
<path d="M0 0 C1.98 0.495 1.98 0.495 4 1 C4 2.32 4 3.64 4 5 C2.35 4.67 0.7 4.34 -1 4 C-0.67 2.68 -0.34 1.36 0 0 Z " fill="#384140" transform="translate(127,228)"/>
<path d="M0 0 C1.65 0 3.3 0 5 0 C4.67 1.65 4.34 3.3 4 5 C2.68 4.34 1.36 3.68 0 3 C0 2.01 0 1.02 0 0 Z " fill="#3C474D" transform="translate(141,202)"/>
<path d="M0 0 C2.31 0 4.62 0 7 0 C7 0.99 7 1.98 7 3 C4.69 3 2.38 3 0 3 C0 2.01 0 1.02 0 0 Z " fill="#0F5A12" transform="translate(227,171)"/>
<path d="M0 0 C1.625 1.6875 1.625 1.6875 3 4 C2.1875 6.75 2.1875 6.75 1 9 C-0.625 7.3125 -0.625 7.3125 -2 5 C-1.1875 2.25 -1.1875 2.25 0 0 Z " fill="#E4947A" transform="translate(258,170)"/>
<path d="M0 0 C3.3 0 6.6 0 10 0 C9.01 0.33 8.02 0.66 7 1 C7 1.66 7 2.32 7 3 C4.69 2.67 2.38 2.34 0 2 C0 1.34 0 0.68 0 0 Z " fill="#41C044" transform="translate(148,113)"/>
<path d="M0 0 C0.99 0.33 1.98 0.66 3 1 C4.1875 3.5625 4.1875 3.5625 5 6 C3.68 5.34 2.36 4.68 1 4 C0.01 4.66 -0.98 5.32 -2 6 C-1.34 4.02 -0.68 2.04 0 0 Z " fill="#EE8C81" transform="translate(218,145)"/>
<path d="M0 0 C1.485 0.99 1.485 0.99 3 2 C3.29296875 4.1640625 3.29296875 4.1640625 3.1875 6.625 C3.16042969 7.44226563 3.13335937 8.25953125 3.10546875 9.1015625 C3.07066406 9.72804687 3.03585938 10.35453125 3 11 C0.61692525 8.61692525 0.56804213 7.24595503 0 4 C-0.33 3.34 -0.66 2.68 -1 2 C-0.67 1.34 -0.34 0.68 0 0 Z " fill="#58816E" transform="translate(250,141)"/>
<path d="M0 0 C1.875 0.25 1.875 0.25 4 1 C5.25 3.0625 5.25 3.0625 6 5 C5.01 5.495 5.01 5.495 4 6 C4 5.34 4 4.68 4 4 C2.68 3.34 1.36 2.68 0 2 C0 1.34 0 0.68 0 0 Z " fill="#408152" transform="translate(230,131)"/>
<path d="M0 0 C2.64 0 5.28 0 8 0 C7.67 0.99 7.34 1.98 7 3 C4.69 2.67 2.38 2.34 0 2 C0 1.34 0 0.68 0 0 Z " fill="#123529" transform="translate(246,177)"/>
<path d="M0 0 C0 0.99 0 1.98 0 3 C-2.97 3 -5.94 3 -9 3 C-5.92807025 0.26939578 -4.09590633 -0.34132553 0 0 Z " fill="#129916" transform="translate(259,103)"/>
<path d="M0 0 C1.65 0 3.3 0 5 0 C5 0.66 5 1.32 5 2 C3.35 2 1.7 2 0 2 C0 1.34 0 0.68 0 0 Z " fill="#1FA922" transform="translate(166,95)"/>
</svg>
